<svg width="579" height="106" viewBox="0 0 579 106" fill="none" xmlns="http://www.w3.org/2000/svg">
<g clip-path="url(#clip0_202_151)">
<path d="M52.9371 93.4356L26.4057 26.4685L93.3729 52.9998L64.2861 64.3489L52.9371 93.4356Z" fill="#3171D1" fill-opacity="0.2"/>
<path d="M52.9374 12.5639L79.4687 79.531L12.5015 52.9997L41.5883 41.6506L52.9374 12.5639Z" fill="#0066FF" fill-opacity="0.35"/>
<path d="M93.3732 52.9998L26.4061 79.5311L52.9374 12.564L64.2865 41.6507L93.3732 52.9998Z" fill="#3171D1" fill-opacity="0.2"/>
<path d="M12.5012 52.9995L79.4683 26.4682L52.937 93.4353L41.5879 64.3486L12.5012 52.9995Z" fill="#3171D1"/>
<path d="M549.469 35.248V65.728C549.469 67.296 549.533 68.72 549.661 70H543.565C543.405 69.2 543.325 68.288 543.325 67.264C542.781 68.256 541.917 69.056 540.733 69.664C539.581 70.272 538.237 70.576 536.701 70.576C533.341 70.576 530.573 69.408 528.397 67.072C526.253 64.704 525.181 61.728 525.181 58.144C525.181 54.656 526.237 51.728 528.349 49.36C530.493 46.992 533.213 45.808 536.509 45.808C539.901 45.808 542.125 46.784 543.181 48.736V35.248H549.469ZM531.613 58.144C531.613 60.224 532.157 61.872 533.245 63.088C534.333 64.272 535.741 64.864 537.469 64.864C539.165 64.864 540.557 64.256 541.645 63.04C542.733 61.824 543.277 60.176 543.277 58.096C543.277 56.048 542.733 54.448 541.645 53.296C540.557 52.112 539.165 51.52 537.469 51.52C535.773 51.52 534.365 52.112 533.245 53.296C532.157 54.48 531.613 56.096 531.613 58.144Z" fill="#001F4D"/>
<path d="M506.749 56.4159V69.9999H500.365V46.3839H506.557V49.3119C507.229 48.1599 508.189 47.2799 509.437 46.6719C510.685 46.0639 511.997 45.7599 513.373 45.7599C516.157 45.7599 518.269 46.6399 519.709 48.3999C521.181 50.1279 521.917 52.3679 521.917 55.1199V69.9999H515.533V56.2239C515.533 54.8159 515.165 53.6799 514.429 52.8159C513.725 51.9519 512.637 51.5199 511.165 51.5199C509.821 51.5199 508.749 51.9839 507.949 52.9119C507.149 53.8399 506.749 55.0079 506.749 56.4159Z" fill="#001F4D"/>
<path d="M489.136 70C489.008 69.36 488.944 68.512 488.944 67.456C488.336 68.512 487.424 69.312 486.208 69.856C485.024 70.368 483.76 70.624 482.416 70.624C479.632 70.624 477.44 69.744 475.84 67.984C474.24 66.192 473.44 63.968 473.44 61.312V46.384H479.824V60.016C479.824 61.424 480.192 62.576 480.928 63.472C481.664 64.336 482.736 64.768 484.144 64.768C485.52 64.768 486.608 64.352 487.408 63.52C488.208 62.656 488.608 61.52 488.608 60.112V46.384H494.992V65.728C494.992 67.232 495.072 68.656 495.232 70H489.136Z" fill="#001F4D"/>
<path d="M457.194 70H450.522V35.968H472.026V42.256H457.146V50.656H470.394V56.752H457.194V70Z" fill="#001F4D"/>
<path d="M419.416 56.4159V69.9999H413.032V46.3839H419.224V49.3119C419.896 48.1599 420.856 47.2799 422.104 46.6719C423.352 46.0639 424.664 45.7599 426.04 45.7599C428.824 45.7599 430.936 46.6399 432.376 48.3999C433.848 50.1279 434.584 52.3679 434.584 55.1199V69.9999H428.2V56.2239C428.2 54.8159 427.832 53.6799 427.096 52.8159C426.392 51.9519 425.304 51.5199 423.832 51.5199C422.488 51.5199 421.416 51.9839 420.616 52.9119C419.816 53.8399 419.416 55.0079 419.416 56.4159Z" fill="#001F4D"/>
<path d="M392.776 63.136C393.96 64.32 395.384 64.912 397.048 64.912C398.712 64.912 400.12 64.32 401.272 63.136C402.456 61.952 403.048 60.304 403.048 58.192C403.048 56.08 402.456 54.432 401.272 53.248C400.12 52.064 398.712 51.472 397.048 51.472C395.384 51.472 393.96 52.064 392.776 53.248C391.624 54.432 391.048 56.08 391.048 58.192C391.048 60.304 391.624 61.952 392.776 63.136ZM388.168 49.216C390.536 46.848 393.496 45.664 397.048 45.664C400.6 45.664 403.544 46.848 405.88 49.216C408.248 51.584 409.432 54.576 409.432 58.192C409.432 61.808 408.248 64.8 405.88 67.168C403.544 69.536 400.6 70.72 397.048 70.72C393.496 70.72 390.536 69.536 388.168 67.168C385.832 64.8 384.664 61.808 384.664 58.192C384.664 54.576 385.832 51.584 388.168 49.216Z" fill="#001F4D"/>
<path d="M381.046 70H374.662V46.384H381.046V70ZM373.894 38.656C373.894 37.568 374.278 36.64 375.046 35.872C375.814 35.072 376.742 34.672 377.83 34.672C378.918 34.672 379.846 35.056 380.614 35.824C381.382 36.592 381.766 37.536 381.766 38.656C381.766 39.712 381.382 40.624 380.614 41.392C379.846 42.16 378.918 42.544 377.83 42.544C376.742 42.544 375.814 42.16 375.046 41.392C374.278 40.624 373.894 39.712 373.894 38.656Z" fill="#001F4D"/>
<path d="M365.927 39.328V46.384H370.679V52.048H365.927V61.936C365.927 62.928 366.151 63.632 366.599 64.048C367.047 64.464 367.751 64.672 368.711 64.672C369.575 64.672 370.231 64.608 370.679 64.48V69.76C369.751 70.144 368.551 70.336 367.079 70.336C364.775 70.336 362.951 69.696 361.607 68.416C360.263 67.104 359.591 65.312 359.591 63.04V52.048H355.319V46.384H356.519C357.703 46.384 358.599 46.048 359.207 45.376C359.847 44.672 360.167 43.76 360.167 42.64V39.328H365.927Z" fill="#001F4D"/>
<path d="M332.32 63.568C332.32 61.552 332.976 59.936 334.288 58.72C335.6 57.504 337.296 56.736 339.376 56.416L345.184 55.552C346.368 55.392 346.96 54.832 346.96 53.872C346.96 52.976 346.608 52.24 345.904 51.664C345.232 51.088 344.256 50.8 342.976 50.8C341.632 50.8 340.56 51.168 339.76 51.904C338.992 52.64 338.56 53.552 338.464 54.64L332.8 53.44C333.024 51.392 334.032 49.584 335.824 48.016C337.616 46.448 339.984 45.664 342.928 45.664C346.448 45.664 349.04 46.512 350.704 48.208C352.368 49.872 353.2 52.016 353.2 54.64V66.256C353.2 67.664 353.296 68.912 353.488 70H347.632C347.472 69.296 347.392 68.352 347.392 67.168C345.888 69.504 343.568 70.672 340.432 70.672C338 70.672 336.032 69.968 334.528 68.56C333.056 67.152 332.32 65.488 332.32 63.568ZM341.776 65.92C343.28 65.92 344.512 65.504 345.472 64.672C346.464 63.808 346.96 62.4 346.96 60.448V59.392L341.632 60.208C339.68 60.496 338.704 61.488 338.704 63.184C338.704 63.952 338.976 64.608 339.52 65.152C340.064 65.664 340.816 65.92 341.776 65.92Z" fill="#001F4D"/>
<path d="M305.114 71.296L310.874 69.7599C311.098 71.0719 311.706 72.144 312.698 72.976C313.69 73.808 314.922 74.2239 316.394 74.2239C320.586 74.2239 322.682 72.0319 322.682 67.6479V65.9199C322.138 66.7839 321.306 67.5039 320.186 68.0799C319.066 68.6559 317.706 68.944 316.106 68.944C312.97 68.944 310.346 67.856 308.234 65.68C306.154 63.504 305.114 60.768 305.114 57.472C305.114 54.272 306.154 51.552 308.234 49.312C310.314 47.0719 312.938 45.952 316.106 45.952C317.834 45.952 319.274 46.272 320.426 46.912C321.578 47.52 322.378 48.272 322.826 49.168V46.384H328.97V67.456C328.97 71.008 327.946 73.952 325.898 76.288C323.85 78.656 320.746 79.8399 316.586 79.8399C313.482 79.8399 310.874 79.008 308.762 77.344C306.682 75.68 305.466 73.664 305.114 71.296ZM317.21 63.472C318.842 63.472 320.17 62.928 321.194 61.84C322.25 60.752 322.778 59.296 322.778 57.472C322.778 55.68 322.234 54.24 321.146 53.152C320.09 52.064 318.778 51.52 317.21 51.52C315.578 51.52 314.218 52.064 313.13 53.152C312.074 54.24 311.546 55.68 311.546 57.472C311.546 59.296 312.074 60.752 313.13 61.84C314.186 62.928 315.546 63.472 317.21 63.472Z" fill="#001F4D"/>
<path d="M301.399 70H295.015V46.384H301.399V70ZM294.247 38.656C294.247 37.568 294.631 36.64 295.399 35.872C296.167 35.072 297.095 34.672 298.183 34.672C299.271 34.672 300.199 35.056 300.967 35.824C301.735 36.592 302.119 37.536 302.119 38.656C302.119 39.712 301.735 40.624 300.967 41.392C300.199 42.16 299.271 42.544 298.183 42.544C297.095 42.544 296.167 42.16 295.399 41.392C294.631 40.624 294.247 39.712 294.247 38.656Z" fill="#001F4D"/>
<path d="M292.571 46.384L283.403 70H277.019L267.371 46.384H274.379L280.235 62.224L285.851 46.384H292.571Z" fill="#001F4D"/>
<path d="M244.846 63.568C244.846 61.552 245.502 59.936 246.814 58.72C248.126 57.504 249.822 56.736 251.902 56.416L257.71 55.552C258.894 55.392 259.486 54.832 259.486 53.872C259.486 52.976 259.134 52.24 258.43 51.664C257.758 51.088 256.782 50.8 255.502 50.8C254.158 50.8 253.086 51.168 252.286 51.904C251.518 52.64 251.086 53.552 250.99 54.64L245.326 53.44C245.55 51.392 246.558 49.584 248.35 48.016C250.142 46.448 252.51 45.664 255.454 45.664C258.974 45.664 261.566 46.512 263.23 48.208C264.894 49.872 265.726 52.016 265.726 54.64V66.256C265.726 67.664 265.822 68.912 266.014 70H260.158C259.998 69.296 259.918 68.352 259.918 67.168C258.414 69.504 256.094 70.672 252.958 70.672C250.526 70.672 248.558 69.968 247.054 68.56C245.582 67.152 244.846 65.488 244.846 63.568ZM254.302 65.92C255.806 65.92 257.038 65.504 257.998 64.672C258.99 63.808 259.486 62.4 259.486 60.448V59.392L254.158 60.208C252.206 60.496 251.23 61.488 251.23 63.184C251.23 63.952 251.502 64.608 252.046 65.152C252.59 65.664 253.342 65.92 254.302 65.92Z" fill="#001F4D"/>
<path d="M240.543 70H233.583L218.127 45.856V70H211.503V35.968H219.759L233.919 58.48V35.968H240.543V70Z" fill="#001F4D"/>
<path d="M179.247 56.08H191.871C191.807 54.352 191.231 52.944 190.143 51.856C189.055 50.736 187.519 50.176 185.535 50.176C183.743 50.176 182.271 50.768 181.119 51.952C179.967 53.104 179.343 54.48 179.247 56.08ZM192.543 62.08L196.431 63.424C195.759 65.568 194.511 67.328 192.687 68.704C190.863 70.048 188.655 70.72 186.063 70.72C182.831 70.72 180.079 69.616 177.807 67.408C175.567 65.168 174.447 62.16 174.447 58.384C174.447 54.864 175.535 51.952 177.711 49.648C179.887 47.344 182.479 46.192 185.487 46.192C188.975 46.192 191.695 47.296 193.647 49.504C195.599 51.68 196.575 54.608 196.575 58.288C196.575 58.864 196.543 59.344 196.479 59.728H179.103C179.135 61.776 179.807 63.456 181.119 64.768C182.463 66.08 184.111 66.736 186.063 66.736C189.359 66.736 191.519 65.184 192.543 62.08Z" fill="#001F4D" fill-opacity="0.4"/>
<path d="M155.318 56.416V70H150.806V35.248H155.318V49.6C156.854 47.36 159.19 46.24 162.326 46.24C164.982 46.24 167.014 47.088 168.422 48.784C169.862 50.48 170.582 52.672 170.582 55.36V70H166.07V56.128C166.07 52.256 164.278 50.32 160.694 50.32C159.03 50.32 157.734 50.896 156.806 52.048C155.878 53.168 155.382 54.624 155.318 56.416Z" fill="#001F4D" fill-opacity="0.4"/>
<path d="M147.936 40.336H136.56V70H131.856V40.336H120.48V35.968H147.936V40.336Z" fill="#001F4D" fill-opacity="0.4"/>
</g>
<defs>
<clipPath id="clip0_202_151">
<rect width="579" height="106" fill="white"/>
</clipPath>
</defs>
</svg>
