<?xml version="1.0" encoding="UTF-8"?><svg id="Layer_2" xmlns="http://www.w3.org/2000/svg" xmlns:xlink="http://www.w3.org/1999/xlink" viewBox="0 0 444.03 238.91"><defs><style>.cls-1{fill:url(#linear-gradient-2);}.cls-2{font-family:Roboto-Regular, Roboto;font-size:30.26px;opacity:.33;}.cls-3{letter-spacing:0em;}.cls-4{letter-spacing:-.02em;}.cls-5{letter-spacing:0em;}.cls-6{letter-spacing:0em;}.cls-7{fill:url(#linear-gradient);}.cls-8{letter-spacing:0em;}</style><linearGradient id="linear-gradient" x1="-1713.27" y1="345.01" x2="-1395.45" y2="348.74" gradientTransform="translate(1629.1 -230.71)" gradientUnits="userSpaceOnUse"><stop offset="0" stop-color="#0759b6"/><stop offset="1" stop-color="#22a4ed"/></linearGradient><linearGradient id="linear-gradient-2" x1="-1442.75" y1="326.2" x2="-1326.76" y2="326.2" gradientTransform="translate(1629.1 -230.71)" gradientUnits="userSpaceOnUse"><stop offset="0" stop-color="#fcca22"/><stop offset="1" stop-color="#fc8722"/></linearGradient></defs><g id="Layer_1-2"><g><text class="cls-2" transform="translate(0 230.71)"><tspan x="0" y="0">Celeb</tspan><tspan class="cls-4" x="76.07" y="0">r</tspan><tspan class="cls-6" x="85.72" y="0">ating our 10th Anni</tspan><tspan class="cls-5" x="340.72" y="0">v</tspan><tspan x="355.19" y="0">ersa</tspan><tspan class="cls-3" x="413.51" y="0">r</tspan><tspan class="cls-8" x="424.02" y="0">y</tspan></text><g><g><g><path class="cls-7" d="M441.13,102.94c-2.02-4.6-4.87-8.8-8.4-12.38-3.54-3.55-7.75-6.36-12.38-8.27-9.66-4.02-20.53-4.02-30.18,0-2.31,.99-4.54,2.17-6.65,3.53-2.08,1.4-4.03,2.99-5.83,4.74-1.04,1.05-2.02,2.17-2.93,3.34-1.09,1.36-2.22,3.17-2.94,4.25-1.48,2.67-2.72,5.47-3.71,8.36-.15-5.6,1.12-11.16,3.71-16.13V55.27c.05-2.2-.85-4.31-2.49-5.78-3.17-3.16-8.3-3.16-11.47,0-1.58,1.5-2.45,3.6-2.4,5.78v31.18c-3.25-2.31-6.83-4.12-10.62-5.38-3.84-1.3-7.87-1.95-11.93-1.94-5.16-.02-10.28,1.01-15.04,3.03-6,2.5-11.2,6.44-15.23,11.4-.11-2.69-.2-5.28-.3-7.69v65.54c-.09,15.99-2.9,18.81-2.9,18.81,1.58,2.56,3.47,4.93,5.64,7.05,3.57,3.52,7.77,6.34,12.38,8.32,4.78,2.04,9.94,3.06,15.14,2.98,10.29,.07,20.17-4,27.43-11.3,3.56-3.53,6.42-7.72,8.4-12.33l.45-1.09,.41,1.09c8.44,19.66,31.13,28.87,50.88,20.65,4.64-1.96,8.87-4.78,12.47-8.32,7.26-7.16,11.36-16.92,11.39-27.11v-32.31c.06-5.11-.92-10.19-2.9-14.91Zm-85.76,47.04l-.13-.18c0,2.96-.61,5.88-1.81,8.58-1.19,2.68-2.85,5.13-4.88,7.23-1.96,2.17-4.34,3.91-7,5.11-11.5,4.84-24.75-.55-29.6-12.05h0c-1.17-2.73-1.77-5.65-1.76-8.6v-32.22c0-2.97,.63-5.91,1.85-8.63,1.19-2.64,2.81-5.07,4.79-7.18,2.04-2.09,4.48-3.73,7.18-4.84,2.79-1.13,5.76-1.71,8.77-1.71,12.33-.15,22.44,9.72,22.59,22.04v32.45Zm49.89,22.1h-.32c-3-.01-5.98-.59-8.77-1.72-2.69-1.11-5.14-2.75-7.18-4.84-2.02-2.11-3.66-4.55-4.83-7.23-1.23-2.69-1.85-5.62-1.81-8.58v-31.86c-.05-2.96,.54-5.91,1.71-8.63,4.86-11.46,18.08-16.84,29.56-12.02,2.7,1.1,5.15,2.74,7.18,4.84,2.03,2.09,3.69,4.52,4.88,7.18,1.19,2.72,1.8,5.66,1.81,8.63v32.13l.04-.18c0,12.3-9.97,22.28-22.27,22.28Z"/><path class="cls-7" d="M204.59,184.41c.23,.44,.51,.85,.83,1.23-.31-.38-.59-.8-.83-1.23Zm-.92-2.86c.05,.51,.16,1.01,.33,1.49-.16-.48-.27-.98-.33-1.49Zm-7.34-99.63c-5.06-2.13-10.39-3.13-15.67-3.04-9.89,.14-19.59,4.05-26.89,11.31-3.68,3.57-6.59,7.84-8.59,12.56l-.36,.95c-.07-.33-.19-.65-.36-.95-2.03-4.6-4.9-8.78-8.45-12.33-7.28-7.27-17.15-11.33-27.43-11.3-5.2-.04-10.35,.99-15.14,3.03-4.23,1.83-8.1,4.4-11.43,7.59v-1.31c0-4.6-3.71-8.34-8.31-8.36H15.27c-4.6,.24-8.14,4.16-7.91,8.76,.21,4.27,3.64,7.68,7.91,7.87H61.14L7.32,168.99c-1.05,1.43-1.62,3.16-1.63,4.93v5.65c.03,4.58,3.74,8.29,8.32,8.31h62.04c4.35-.01,7.96-3.38,8.27-7.73,2.74,2.23,5.78,4.07,9.03,5.47,4.77,2.02,9.91,3.04,15.09,2.98,7.65,.13,15.15-2.11,21.47-6.41,5.05-3.38,9.23-7.9,12.2-13.2v11.25c-.13,4.49,3.41,8.24,7.9,8.36h.19c2.24-.02,4.27-.93,5.74-2.4s2.4-3.49,2.44-5.73v-29.37h-20.29c-1.61,0-3.18,.47-4.52,1.36-1.27,.94-2.21,2.25-2.71,3.75l-1.31,2.75c-3.75,8.1-11.91,13.23-20.83,13.11-3.03,.07-6.04-.45-8.86-1.54-2.71-1.1-5.15-2.74-7.18-4.84-2.01-2.18-3.63-4.68-4.79-7.41-1.16-2.68-1.75-5.57-1.72-8.49v-7.32h72.3v-24.81c-.05-2.96,.54-5.9,1.71-8.63,3.52-8.21,11.57-13.54,20.48-13.55h.35c2.99,0,5.96,.58,8.72,1.71,2.72,1.1,5.18,2.74,7.23,4.84,2,2.1,3.61,4.53,4.79,7.18,1.22,2.72,1.86,5.66,1.86,8.63v-31.71c-2.26-1.67-4.7-3.08-7.28-4.21ZM26.66,171.12v-.09l43.42-58.74c-.2,1.78-.29,3.58-.27,5.37v32.13c-.03,5.18,1.03,10.31,3.12,15.05,.96,2.18,2.11,4.28,3.43,6.28H26.66Zm59.46-45.28v-8.18c0-2.96,.59-5.9,1.77-8.63,4.85-11.44,18.03-16.81,29.5-12.02,2.71,1.09,5.16,2.73,7.19,4.84,2.04,2.07,3.68,4.51,4.83,7.18,1.22,2.72,1.85,5.66,1.85,8.63l.05,8.18h-45.19Z"/></g><g><path class="cls-7" d="M441.13,102.94c-2.02-4.6-4.87-8.8-8.4-12.38-3.54-3.55-7.75-6.36-12.38-8.27-9.66-4.02-20.53-4.02-30.18,0-2.31,.99-4.54,2.17-6.65,3.53-2.08,1.4-4.03,2.99-5.83,4.74-1.04,1.05-2.02,2.17-2.93,3.34-1.09,1.36-2.22,3.17-2.94,4.25-1.48,2.67-2.72,5.47-3.71,8.36-.15-5.6,1.12-11.16,3.71-16.13V55.27c.05-2.2-.85-4.31-2.49-5.78-3.17-3.16-8.3-3.16-11.47,0-1.58,1.5-2.45,3.6-2.4,5.78v31.18c-3.25-2.31-6.83-4.12-10.62-5.38-3.84-1.3-7.87-1.95-11.93-1.94-5.16-.02-10.28,1.01-15.04,3.03-6,2.5-11.2,6.44-15.23,11.4-.11-2.69-.2-5.28-.3-7.69v65.54c-.09,15.99-2.9,18.81-2.9,18.81,1.58,2.56,3.47,4.93,5.64,7.05,3.57,3.52,7.77,6.34,12.38,8.32,4.78,2.04,9.94,3.06,15.14,2.98,10.29,.07,20.17-4,27.43-11.3,3.56-3.53,6.42-7.72,8.4-12.33l.45-1.09,.41,1.09c8.44,19.66,31.13,28.87,50.88,20.65,4.64-1.96,8.87-4.78,12.47-8.32,7.26-7.16,11.36-16.92,11.39-27.11v-32.31c.06-5.11-.92-10.19-2.9-14.91Zm-85.76,47.04l-.13-.18c0,2.96-.61,5.88-1.81,8.58-1.19,2.68-2.85,5.13-4.88,7.23-1.96,2.17-4.34,3.91-7,5.11-11.5,4.84-24.75-.55-29.6-12.05h0c-1.17-2.73-1.77-5.65-1.76-8.6v-32.22c0-2.97,.63-5.91,1.85-8.63,1.19-2.64,2.81-5.07,4.79-7.18,2.04-2.09,4.48-3.73,7.18-4.84,2.79-1.13,5.76-1.71,8.77-1.71,12.33-.15,22.44,9.72,22.59,22.04v32.45Zm49.89,22.1h-.32c-3-.01-5.98-.59-8.77-1.72-2.69-1.11-5.14-2.75-7.18-4.84-2.02-2.11-3.66-4.55-4.83-7.23-1.23-2.69-1.85-5.62-1.81-8.58v-31.86c-.05-2.96,.54-5.91,1.71-8.63,4.86-11.46,18.08-16.84,29.56-12.02,2.7,1.1,5.15,2.74,7.18,4.84,2.03,2.09,3.69,4.52,4.88,7.18,1.19,2.72,1.8,5.66,1.81,8.63v32.13l.04-.18c0,12.3-9.97,22.28-22.27,22.28Z"/><path class="cls-7" d="M204.59,184.41c.23,.44,.51,.85,.83,1.23-.31-.38-.59-.8-.83-1.23Zm-.92-2.86c.05,.51,.16,1.01,.33,1.49-.16-.48-.27-.98-.33-1.49Zm-7.34-99.63c-5.06-2.13-10.39-3.13-15.67-3.04-9.89,.14-19.59,4.05-26.89,11.31-3.68,3.57-6.59,7.84-8.59,12.56l-.36,.95c-.07-.33-.19-.65-.36-.95-2.03-4.6-4.9-8.78-8.45-12.33-7.28-7.27-17.15-11.33-27.43-11.3-5.2-.04-10.35,.99-15.14,3.03-4.23,1.83-8.1,4.4-11.43,7.59v-1.31c0-4.6-3.71-8.34-8.31-8.36H15.27c-4.6,.24-8.14,4.16-7.91,8.76,.21,4.27,3.64,7.68,7.91,7.87H61.14L7.32,168.99c-1.05,1.43-1.62,3.16-1.63,4.93v5.65c.03,4.58,3.74,8.29,8.32,8.31h62.04c4.35-.01,7.96-3.38,8.27-7.73,2.74,2.23,5.78,4.07,9.03,5.47,4.77,2.02,9.91,3.04,15.09,2.98,7.65,.13,15.15-2.11,21.47-6.41,5.05-3.38,9.23-7.9,12.2-13.2v11.25c-.13,4.49,3.41,8.24,7.9,8.36h.19c2.24-.02,4.27-.93,5.74-2.4s2.4-3.49,2.44-5.73v-29.37h-20.29c-1.61,0-3.18,.47-4.52,1.36-1.27,.94-2.21,2.25-2.71,3.75l-1.31,2.75c-3.75,8.1-11.91,13.23-20.83,13.11-3.03,.07-6.04-.45-8.86-1.54-2.71-1.1-5.15-2.74-7.18-4.84-2.01-2.18-3.63-4.68-4.79-7.41-1.16-2.68-1.75-5.57-1.72-8.49v-7.32h72.3v-24.81c-.05-2.96,.54-5.9,1.71-8.63,3.52-8.21,11.57-13.54,20.48-13.55h.35c2.99,0,5.96,.58,8.72,1.71,2.72,1.1,5.18,2.74,7.23,4.84,2,2.1,3.61,4.53,4.79,7.18,1.22,2.72,1.86,5.66,1.86,8.63v-31.71c-2.26-1.67-4.7-3.08-7.28-4.21ZM26.66,171.12v-.09l43.42-58.74c-.2,1.78-.29,3.58-.27,5.37v32.13c-.03,5.18,1.03,10.31,3.12,15.05,.96,2.18,2.11,4.28,3.43,6.28H26.66Zm59.46-45.28v-8.18c0-2.96,.59-5.9,1.77-8.63,4.85-11.44,18.03-16.81,29.5-12.02,2.71,1.09,5.16,2.73,7.19,4.84,2.04,2.07,3.68,4.51,4.83,7.18,1.22,2.72,1.85,5.66,1.85,8.63l.05,8.18h-45.19Z"/></g><g><path class="cls-7" d="M441.13,102.94c-2.02-4.6-4.87-8.8-8.4-12.38-3.54-3.55-7.75-6.36-12.38-8.27-9.66-4.02-20.53-4.02-30.18,0-2.31,.99-4.54,2.17-6.65,3.53-2.08,1.4-4.03,2.99-5.83,4.74-1.04,1.05-2.02,2.17-2.93,3.34-1.09,1.36-2.22,3.17-2.94,4.25-1.48,2.67-2.72,5.47-3.71,8.36-.15-5.6,1.12-11.16,3.71-16.13V55.27c.05-2.2-.85-4.31-2.49-5.78-3.17-3.16-8.3-3.16-11.47,0-1.58,1.5-2.45,3.6-2.4,5.78v31.18c-3.25-2.31-6.83-4.12-10.62-5.38-3.84-1.3-7.87-1.95-11.93-1.94-5.16-.02-10.28,1.01-15.04,3.03-6,2.5-11.2,6.44-15.23,11.4-.11-2.69-.2-5.28-.3-7.69v65.54c-.09,15.99-2.9,18.81-2.9,18.81,1.58,2.56,3.47,4.93,5.64,7.05,3.57,3.52,7.77,6.34,12.38,8.32,4.78,2.04,9.94,3.06,15.14,2.98,10.29,.07,20.17-4,27.43-11.3,3.56-3.53,6.42-7.72,8.4-12.33l.45-1.09,.41,1.09c8.44,19.66,31.13,28.87,50.88,20.65,4.64-1.96,8.87-4.78,12.47-8.32,7.26-7.16,11.36-16.92,11.39-27.11v-32.31c.06-5.11-.92-10.19-2.9-14.91Zm-85.76,47.04l-.13-.18c0,2.96-.61,5.88-1.81,8.58-1.19,2.68-2.85,5.13-4.88,7.23-1.96,2.17-4.34,3.91-7,5.11-11.5,4.84-24.75-.55-29.6-12.05h0c-1.17-2.73-1.77-5.65-1.76-8.6v-32.22c0-2.97,.63-5.91,1.85-8.63,1.19-2.64,2.81-5.07,4.79-7.18,2.04-2.09,4.48-3.73,7.18-4.84,2.79-1.13,5.76-1.71,8.77-1.71,12.33-.15,22.44,9.72,22.59,22.04v32.45Zm49.89,22.1h-.32c-3-.01-5.98-.59-8.77-1.72-2.69-1.11-5.14-2.75-7.18-4.84-2.02-2.11-3.66-4.55-4.83-7.23-1.23-2.69-1.85-5.62-1.81-8.58v-31.86c-.05-2.96,.54-5.91,1.71-8.63,4.86-11.46,18.08-16.84,29.56-12.02,2.7,1.1,5.15,2.74,7.18,4.84,2.03,2.09,3.69,4.52,4.88,7.18,1.19,2.72,1.8,5.66,1.81,8.63v32.13l.04-.18c0,12.3-9.97,22.28-22.27,22.28Z"/><path class="cls-7" d="M204.59,184.41c.23,.44,.51,.85,.83,1.23-.31-.38-.59-.8-.83-1.23Zm-.92-2.86c.05,.51,.16,1.01,.33,1.49-.16-.48-.27-.98-.33-1.49Zm-7.34-99.63c-5.06-2.13-10.39-3.13-15.67-3.04-9.89,.14-19.59,4.05-26.89,11.31-3.68,3.57-6.59,7.84-8.59,12.56l-.36,.95c-.07-.33-.19-.65-.36-.95-2.03-4.6-4.9-8.78-8.45-12.33-7.28-7.27-17.15-11.33-27.43-11.3-5.2-.04-10.35,.99-15.14,3.03-4.23,1.83-8.1,4.4-11.43,7.59v-1.31c0-4.6-3.71-8.34-8.31-8.36H15.27c-4.6,.24-8.14,4.16-7.91,8.76,.21,4.27,3.64,7.68,7.91,7.87H61.14L7.32,168.99c-1.05,1.43-1.62,3.16-1.63,4.93v5.65c.03,4.58,3.74,8.29,8.32,8.31h62.04c4.35-.01,7.96-3.38,8.27-7.73,2.74,2.23,5.78,4.07,9.03,5.47,4.77,2.02,9.91,3.04,15.09,2.98,7.65,.13,15.15-2.11,21.47-6.41,5.05-3.38,9.23-7.9,12.2-13.2v11.25c-.13,4.49,3.41,8.24,7.9,8.36h.19c2.24-.02,4.27-.93,5.74-2.4s2.4-3.49,2.44-5.73v-29.37h-20.29c-1.61,0-3.18,.47-4.52,1.36-1.27,.94-2.21,2.25-2.71,3.75l-1.31,2.75c-3.75,8.1-11.91,13.23-20.83,13.11-3.03,.07-6.04-.45-8.86-1.54-2.71-1.1-5.15-2.74-7.18-4.84-2.01-2.18-3.63-4.68-4.79-7.41-1.16-2.68-1.75-5.57-1.72-8.49v-7.32h72.3v-24.81c-.05-2.96,.54-5.9,1.71-8.63,3.52-8.21,11.57-13.54,20.48-13.55h.35c2.99,0,5.96,.58,8.72,1.71,2.72,1.1,5.18,2.74,7.23,4.84,2,2.1,3.61,4.53,4.79,7.18,1.22,2.72,1.86,5.66,1.86,8.63v-31.71c-2.26-1.67-4.7-3.08-7.28-4.21ZM26.66,171.12v-.09l43.42-58.74c-.2,1.78-.29,3.58-.27,5.37v32.13c-.03,5.18,1.03,10.31,3.12,15.05,.96,2.18,2.11,4.28,3.43,6.28H26.66Zm59.46-45.28v-8.18c0-2.96,.59-5.9,1.77-8.63,4.85-11.44,18.03-16.81,29.5-12.02,2.71,1.09,5.16,2.73,7.19,4.84,2.04,2.07,3.68,4.51,4.83,7.18,1.22,2.72,1.85,5.66,1.85,8.63l.05,8.18h-45.19Z"/></g></g><g><path class="cls-1" d="M224.91,27.74c0,7.06-5.28,12.89-12.11,13.76v-10.65c0-.97-.79-1.76-1.76-1.76s-1.76,.79-1.76,1.76v10.65c-6.83-.87-12.11-6.7-12.11-13.76,0-4.07,1.64-7.74,4.31-10.4l6.93-6.94c2.67-2.65,4.32-6.33,4.32-10.4,0,0,.01,.01,.02,.03,.34,.52,5.02,7.74,8.2,14.16,.3,.62,.59,1.23,.86,1.82,.17,.39,.34,.77,.51,1.15,.04,.08,.07,.15,.1,.23,.09,.22,.18,.42,.26,.58,.83,1.93,1.43,3.55,1.58,4.51v.03c.41,1.62,.65,3.38,.65,5.23Z"/><path class="cls-1" d="M280.37,27.74c0,7.06-5.28,12.89-12.11,13.76v-10.65c0-.97-.79-1.76-1.76-1.76s-1.77,.79-1.77,1.76v10.64c-6.83-.86-12.1-6.69-12.1-13.75,0-4.07,1.64-7.74,4.31-10.4l6.93-6.94c2.67-2.65,4.32-6.33,4.32-10.4,0,0,.01,.01,.02,.03,.34,.52,5.02,7.74,8.2,14.16,.3,.62,.59,1.23,.86,1.82,.17,.39,.34,.77,.51,1.15,.04,.08,.07,.15,.1,.23,.09,.22,.18,.42,.26,.58,.83,1.93,1.43,3.55,1.58,4.51v.03c.41,1.62,.65,3.38,.65,5.23Z"/><g><g><path class="cls-1" d="M302.02,79.99c-.27-7.13-3.06-14-8.07-19.08-.03-.03-.07-.06-.1-.1-3.55-3.59-7.75-6.46-12.38-8.45-7.23-3.06-15.16-3.82-22.74-2.29-15.12,2.24-24.57,15.78-24.57,15.78-1.39,1.97-4.26,7.29-4.82,18.34-.02,.48-.04,.97-.06,1.47-.02,.45-.04,.91-.06,1.38,0,.06,0,.12,0,.17-.58,14.59-1.11,40,.4,71.13,.31,6.57,2.52,12.96,6.56,18.15,.8,1.02,1.69,2.07,2.69,3.14,3.53,3.56,7.74,6.39,12.38,8.32,9.63,4.01,20.46,4.01,30.09,0,4.64-1.99,8.87-4.8,12.47-8.32,2.16-2.12,4.05-4.48,5.64-7.03,0,0,2.81-2.82,2.9-18.81V88.25c-.12-3.1-.23-5.9-.32-8.26Zm-12.96,72.18c.04,2.95-.54,5.88-1.72,8.58-3.48,8.42-11.72,13.86-20.83,13.78-2.97,.08-5.93-.41-8.72-1.45-2.72-1.09-5.18-2.74-7.23-4.83-2.02-2.11-3.66-4.56-4.83-7.23-1.21-2.7-1.82-5.61-1.81-8.57V88.03c.12-12.46,10.32-22.49,22.8-22.37,2.91,.03,5.78,.62,8.47,1.73,2.72,1.1,5.18,2.74,7.23,4.84,1.99,2.11,3.62,4.53,4.83,7.18,1.19,2.71,1.8,5.65,1.81,8.62v64.14Z"/><path class="cls-1" d="M212.11,49.31h-.2c-.17,0-.33,.01-.5,.02-.12,.01-.23,.02-.35,.03-.14,.01-.28,.03-.42,.06-.24,.03-.47,.08-.7,.14-.13,.03-.25,.06-.38,.1-.04,.01-.08,.02-.12,.04-.13,.04-.26,.08-.39,.13-.15,.06-.3,.11-.44,.18-.15,.06-.29,.13-.43,.2-.19,.09-.38,.19-.56,.31-.02,0-.03,.01-.05,.03-.08,.04-.16,.09-.24,.14-.06,.04-.13,.08-.19,.14-.12,.07-.24,.16-.36,.26-.09,.06-.17,.13-.26,.2-.06,.06-.13,.11-.19,.17l-.71,.55-13.15,10.11-2.99,2.46c-3.54,2.76-4.18,7.88-1.41,11.41l.12,.15c1.44,1.71,3.43,2.7,5.5,2.9,2.07,.2,4.22-.37,5.98-1.77l3.16-2.61,.78-.62v109.11c.1,4.2,3.46,7.65,7.72,7.83h.62c2.24-.02,4.27-.93,5.74-2.4,1.47-1.47,2.4-3.49,2.44-5.73V56.51c-.48-3.96-3.85-7.09-8.02-7.2Z"/></g><g><path class="cls-1" d="M302.02,79.99c-.27-7.13-3.06-14-8.07-19.08-.03-.03-.07-.06-.1-.1-3.55-3.59-7.75-6.46-12.38-8.45-7.23-3.06-15.16-3.82-22.74-2.29-15.12,2.24-24.57,15.78-24.57,15.78-1.39,1.97-4.26,7.29-4.82,18.34-.02,.48-.04,.97-.06,1.47-.02,.45-.04,.91-.06,1.38,0,.06,0,.12,0,.17-.58,14.59-1.11,40,.4,71.13,.31,6.57,2.52,12.96,6.56,18.15,.8,1.02,1.69,2.07,2.69,3.14,3.53,3.56,7.74,6.39,12.38,8.32,9.63,4.01,20.46,4.01,30.09,0,4.64-1.99,8.87-4.8,12.47-8.32,2.16-2.12,4.05-4.48,5.64-7.03,0,0,2.81-2.82,2.9-18.81V88.25c-.12-3.1-.23-5.9-.32-8.26Zm-12.96,72.18c.04,2.95-.54,5.88-1.72,8.58-3.48,8.42-11.72,13.86-20.83,13.78-2.97,.08-5.93-.41-8.72-1.45-2.72-1.09-5.18-2.74-7.23-4.83-2.02-2.11-3.66-4.56-4.83-7.23-1.21-2.7-1.82-5.61-1.81-8.57V88.03c.12-12.46,10.32-22.49,22.8-22.37,2.91,.03,5.78,.62,8.47,1.73,2.72,1.1,5.18,2.74,7.23,4.84,1.99,2.11,3.62,4.53,4.83,7.18,1.19,2.71,1.8,5.65,1.81,8.62v64.14Z"/><path class="cls-1" d="M212.11,49.31h-.2c-.17,0-.33,.01-.5,.02-.12,.01-.23,.02-.35,.03-.14,.01-.28,.03-.42,.06-.24,.03-.47,.08-.7,.14-.13,.03-.25,.06-.38,.1-.04,.01-.08,.02-.12,.04-.13,.04-.26,.08-.39,.13-.15,.06-.3,.11-.44,.18-.15,.06-.29,.13-.43,.2-.19,.09-.38,.19-.56,.31-.02,0-.03,.01-.05,.03-.08,.04-.16,.09-.24,.14-.06,.04-.13,.08-.19,.14-.12,.07-.24,.16-.36,.26-.09,.06-.17,.13-.26,.2-.06,.06-.13,.11-.19,.17l-.71,.55-13.15,10.11-2.99,2.46c-3.54,2.76-4.18,7.88-1.41,11.41l.12,.15c1.44,1.71,3.43,2.7,5.5,2.9,2.07,.2,4.22-.37,5.98-1.77l3.16-2.61,.78-.62v109.11c.1,4.2,3.46,7.65,7.72,7.83h.62c2.24-.02,4.27-.93,5.74-2.4,1.47-1.47,2.4-3.49,2.44-5.73V56.51c-.48-3.96-3.85-7.09-8.02-7.2Z"/></g><g><path class="cls-1" d="M302.02,79.99c-.27-7.13-3.06-14-8.07-19.08-.03-.03-.07-.06-.1-.1-3.55-3.59-7.75-6.46-12.38-8.45-7.23-3.06-15.16-3.82-22.74-2.29-15.12,2.24-24.57,15.78-24.57,15.78-1.39,1.97-4.26,7.29-4.82,18.34-.02,.48-.04,.97-.06,1.47-.02,.45-.04,.91-.06,1.38,0,.06,0,.12,0,.17-.58,14.59-1.11,40,.4,71.13,.31,6.57,2.52,12.96,6.56,18.15,.8,1.02,1.69,2.07,2.69,3.14,3.53,3.56,7.74,6.39,12.38,8.32,9.63,4.01,20.46,4.01,30.09,0,4.64-1.99,8.87-4.8,12.47-8.32,2.16-2.12,4.05-4.48,5.64-7.03,0,0,2.81-2.82,2.9-18.81V88.25c-.12-3.1-.23-5.9-.32-8.26Zm-12.96,72.18c.04,2.95-.54,5.88-1.72,8.58-3.48,8.42-11.72,13.86-20.83,13.78-2.97,.08-5.93-.41-8.72-1.45-2.72-1.09-5.18-2.74-7.23-4.83-2.02-2.11-3.66-4.56-4.83-7.23-1.21-2.7-1.82-5.61-1.81-8.57V88.03c.12-12.46,10.32-22.49,22.8-22.37,2.91,.03,5.78,.62,8.47,1.73,2.72,1.1,5.18,2.74,7.23,4.84,1.99,2.11,3.62,4.53,4.83,7.18,1.19,2.71,1.8,5.65,1.81,8.62v64.14Z"/><path class="cls-1" d="M212.11,49.31h-.2c-.17,0-.33,.01-.5,.02-.12,.01-.23,.02-.35,.03-.14,.01-.28,.03-.42,.06-.24,.03-.47,.08-.7,.14-.13,.03-.25,.06-.38,.1-.04,.01-.08,.02-.12,.04-.13,.04-.26,.08-.39,.13-.15,.06-.3,.11-.44,.18-.15,.06-.29,.13-.43,.2-.19,.09-.38,.19-.56,.31-.02,0-.03,.01-.05,.03-.08,.04-.16,.09-.24,.14-.06,.04-.13,.08-.19,.14-.12,.07-.24,.16-.36,.26-.09,.06-.17,.13-.26,.2-.06,.06-.13,.11-.19,.17l-.71,.55-13.15,10.11-2.99,2.46c-3.54,2.76-4.18,7.88-1.41,11.41l.12,.15c1.44,1.71,3.43,2.7,5.5,2.9,2.07,.2,4.22-.37,5.98-1.77l3.16-2.61,.78-.62v109.11c.1,4.2,3.46,7.65,7.72,7.83h.62c2.24-.02,4.27-.93,5.74-2.4,1.47-1.47,2.4-3.49,2.44-5.73V56.51c-.48-3.96-3.85-7.09-8.02-7.2Z"/></g></g></g></g></g></g></svg>